<svg xmlns="http://www.w3.org/2000/svg">
    <symbol viewBox="0 0 18 18" id="i-arrow-slider">
        <circle cx="9" cy="9" r="8.5"/>
        <path d="M8.22856 6.94287L10.2857 8.87144L8.22856 10.8"/>
    </symbol>

    <symbol viewBox="0 0 18 18" id="i-basket">
        <path d="M13.5268 15C12.713 15 12.0536 15.6714 12.0536 16.5C12.0536 17.3286 12.713 18 13.5268 18C14.3406 18 15 17.3286 15 16.5C15 15.6714 14.3406 15 13.5268 15ZM8.22321 15C7.40941 15 6.75 15.6714 6.75 16.5C6.75 17.3286 7.40941 18 8.22321 18C9.03702 18 9.69643 17.3286 9.69643 16.5C9.69643 15.6714 9.03702 15 8.22321 15Z"/>
        <path d="M13.5268 15.75C13.1399 15.75 12.8036 16.0728 12.8036 16.5C12.8036 16.9272 13.1399 17.25 13.5268 17.25C13.9137 17.25 14.25 16.9272 14.25 16.5C14.25 16.0728 13.9137 15.75 13.5268 15.75ZM8.22321 15.75C7.83631 15.75 7.5 16.0728 7.5 16.5C7.5 16.9272 7.83631 17.25 8.22321 17.25C8.61012 17.25 8.94643 16.9272 8.94643 16.5C8.94643 16.0728 8.61012 15.75 8.22321 15.75ZM12.0536 16.5C12.0536 15.6714 12.713 15 13.5268 15C14.3406 15 15 15.6714 15 16.5C15 17.3286 14.3406 18 13.5268 18C12.713 18 12.0536 17.3286 12.0536 16.5ZM6.75 16.5C6.75 15.6714 7.40941 15 8.22321 15C9.03702 15 9.69643 15.6714 9.69643 16.5C9.69643 17.3286 9.03702 18 8.22321 18C7.40941 18 6.75 17.3286 6.75 16.5Z"/>
        <path d="M0 0.75C0 0.335786 0.335786 0 0.75 0H4.26064C4.60094 0 4.89859 0.229112 4.98567 0.55808L5.95308 4.21276H17.25C17.4947 4.21276 17.7239 4.3321 17.8643 4.53249C18.0047 4.73288 18.0385 4.98914 17.9548 5.21907L15.1463 12.9425C15.0386 13.2389 14.7569 13.4362 14.4415 13.4362H7.42021C7.07991 13.4362 6.78226 13.2071 6.69518 12.8781L3.68334 1.5H0.75C0.335786 1.5 0 1.16421 0 0.75ZM6.35014 5.71276L7.99751 11.9362H13.9162L16.1792 5.71276H6.35014Z"/>
    </symbol>

    <symbol viewBox="0 0 19 18" id="i-favorites">
        <path d="M12.9873 0.000335199C12.2626 0.00841138 11.5192 0.161729 10.7919 0.476213L10.7589 0.49139L10.7259 0.509817C10.2649 0.76416 9.84468 1.08233 9.47114 1.45939C7.46079 -0.424241 4.26023 -0.560951 2.07059 1.57755L2.04857 1.59922L2.02856 1.62199C0.107714 3.79551 0.152699 7.14283 1.3041 9.78769L1.3141 9.8083L1.32411 9.82998C2.68017 12.5503 5.21235 14.8618 7.51992 16.7621L7.52592 16.7675L7.53092 16.7719C7.67937 16.8898 7.93464 17.1335 8.22935 17.3735C8.52404 17.6134 8.85693 17.8764 9.34403 17.9773L9.45309 18L9.56316 17.9902C10.0744 17.9425 10.2749 17.738 10.6108 17.509C10.9467 17.2799 11.3185 16.9892 11.7005 16.671C12.4535 16.0439 13.2327 15.321 13.7458 14.8055C13.7524 14.7988 13.7632 14.7893 13.7698 14.7827C13.7708 14.7817 13.7717 14.7804 13.7728 14.7795C14.8535 13.7804 15.9241 12.6286 16.8317 11.2739C16.8319 11.2735 16.8324 11.2732 16.8326 11.2728C16.8343 11.2703 16.8359 11.2677 16.8376 11.2652C18.277 9.16583 18.9752 6.33669 18.1424 3.54935L18.1274 3.49948L18.1074 3.45286C17.1725 1.26313 15.1615 -0.0238608 12.9873 0.000335199ZM13.0133 1.71522C14.5798 1.67618 15.9529 2.58488 16.6345 4.13901C17.2644 6.31482 16.7199 8.53168 15.5469 10.2386L15.5439 10.243L15.5409 10.2473C14.7237 11.469 13.734 12.5384 12.7081 13.4841L12.6951 13.4971L12.6821 13.5101C12.2202 13.976 11.4382 14.7016 10.7239 15.2966C10.3667 15.594 10.0243 15.8599 9.75831 16.0413C9.65829 16.1095 9.56319 16.156 9.48513 16.1919C9.4031 16.1434 9.29898 16.075 9.19097 15.9871C8.97347 15.81 8.74187 15.5839 8.48952 15.3822C8.48559 15.3789 8.48145 15.3757 8.47752 15.3724C6.23811 13.5272 3.87927 11.2866 2.74499 9.02782C1.82412 6.8966 1.86431 4.34571 3.16524 2.84689C4.93413 1.14306 7.56209 1.51347 8.87274 3.26206L9.51114 4.113L10.1285 3.24472C10.4838 2.74547 10.9077 2.36381 11.4223 2.07401C11.9618 1.84572 12.4977 1.72805 13.0133 1.71522Z"/>
    </symbol>

    <symbol viewBox="0 0 18 19" id="i-geo">
        <path d="M8.95076 17.7198C8.04931 16.3722 7.28636 15.2514 6.64015 14.3022C5.49365 12.618 4.7146 11.4736 4.18135 10.5592C3.77366 9.86011 3.5365 9.33832 3.39651 8.85084C3.25805 8.36867 3.20459 7.88504 3.20459 7.25C3.20459 3.91436 5.82088 1.25 9.00004 1.25C12.1792 1.25 14.7955 3.91436 14.7955 7.25C14.7955 7.88504 14.742 8.36867 14.6036 8.85084C14.4636 9.33832 14.2264 9.86011 13.8187 10.5592C13.2855 11.4736 12.5064 12.618 11.3599 14.3022C10.7138 15.2513 9.95099 16.3719 9.04969 17.7193C9.03874 17.7355 9.02946 17.7415 9.02407 17.7443C9.01735 17.7478 9.00915 17.75 9.00004 17.75C8.99093 17.75 8.98274 17.7478 8.97601 17.7443C8.97057 17.7415 8.96116 17.7353 8.95008 17.7188L8.32736 18.1368L8.95076 17.7198ZM9.00004 10.8125C10.9421 10.8125 12.4773 9.1956 12.4773 7.25C12.4773 5.3044 10.9421 3.6875 9.00004 3.6875C7.05801 3.6875 5.52277 5.3044 5.52277 7.25C5.52277 9.1956 7.05801 10.8125 9.00004 10.8125Z"/>
        
    </symbol>

    <symbol viewBox="0 0 25 18" id="i-mail">
        <path d="M5.31548 11.5659L1.27162 15.4545C1.1105 15.1565 1.00922 14.7624 1.00922 14.3395V1.59854L8.33824 8.65867M16.2298 9.06719L23.9999 1.57451V14.3395C23.9999 14.7528 23.9078 15.1325 23.7467 15.4304L18.0994 10.0318M1.30201 1.40101L1.27347 1.38226M8.33824 8.65867L10.3961 10.6436C10.5066 10.7493 10.6171 10.8406 10.7275 10.9175C11.8462 11.7826 13.1491 11.7826 14.2631 10.9127C14.369 10.8358 14.4795 10.7397 14.5808 10.6436L16.6524 8.64906"/>
        <path d="M18.0638 9.99731L23.747 15.4301C23.5536 15.8002 23.2544 16.0405 22.9229 16.0405H2.08676C1.7645 16.0405 1.46987 15.8146 1.27191 15.4541L6.83221 10.1069"/>
        <path d="M18.8563 1.04102H23.2114C23.483 1.04102 23.7454 1.20923 23.9342 1.47837C23.9572 1.50721 23.9802 1.54085 23.9986 1.57449L16.6512 8.64904L14.5795 10.6436C14.4783 10.7397 14.3678 10.8358 14.2619 10.9127C13.1478 11.7826 11.845 11.7826 10.7263 10.9175C10.6158 10.8406 10.5053 10.7493 10.3948 10.6436L8.33698 8.65866L1.00796 1.59852C1.02637 1.56968 1.04939 1.53604 1.07241 1.5024C1.26576 1.21404 1.52817 1.04102 1.8136 1.04102H5.7175M2.14644 16.0408C2.14644 16.0408 0.879514 16.1081 1.00934 13.8853"/>
        <path d="M5.37347 1.04102H20.1052"/>
    </symbol>

    <symbol viewBox="0 0 18 18" id="i-phone">
        <path d="M11.9079 13.5367L12.2719 13.5821L12.5312 13.3227L14.0793 11.774C14.1845 11.6706 14.3174 11.5998 14.4618 11.5701L14.3111 10.8355L14.4618 11.5701C14.6064 11.5405 14.7564 11.5533 14.8939 11.607C14.8944 11.6072 14.8949 11.6074 14.8955 11.6076L16.7768 12.359C16.7773 12.3593 16.7779 12.3595 16.7785 12.3597C16.9164 12.4161 17.0348 12.512 17.1187 12.6355C17.2024 12.7586 17.2481 12.9037 17.25 13.0527V16.5062C17.2489 16.6069 17.2276 16.7064 17.1873 16.7987C17.1467 16.8917 17.0878 16.9756 17.014 17.0452C16.9402 17.1148 16.8531 17.1687 16.758 17.2037C16.664 17.2384 16.5641 17.2538 16.464 17.2492C10.0927 16.8514 6.32079 13.9728 4.05779 10.7066C1.77183 7.40727 1.00028 3.67009 0.754398 1.58339C0.743006 1.47847 0.753806 1.37231 0.786103 1.27182C0.818603 1.17071 0.872128 1.07764 0.94314 0.998746C1.01415 0.91985 1.10104 0.856908 1.19807 0.814045C1.29511 0.771182 1.4001 0.749363 1.50615 0.750014L1.50615 0.750028H1.51075H4.8516C4.99979 0.750652 5.14445 0.795516 5.26705 0.878921C5.38992 0.962502 5.48502 1.08098 5.54009 1.21914L5.54022 1.21947L6.29445 3.10926L6.29443 3.10927L6.29648 3.11431C6.35177 3.24996 6.36588 3.39891 6.33704 3.54255C6.30824 3.68599 6.2379 3.81773 6.13484 3.92139C6.13469 3.92154 6.13454 3.92169 6.1344 3.92183L4.58539 5.47146L4.31877 5.73819L4.37388 6.11127L5.11583 6.00168C4.37388 6.11127 4.37393 6.11164 4.37399 6.11203L4.37413 6.11293L4.37446 6.11515L4.3754 6.12125L4.37839 6.13997C4.38089 6.1553 4.38445 6.1763 4.38918 6.20261C4.39865 6.25521 4.41286 6.32915 4.43289 6.42159C4.47291 6.60632 4.53634 6.86589 4.63189 7.17749C4.82241 7.7988 5.1439 8.63768 5.66977 9.50543C6.72909 11.2535 8.62962 13.1277 11.9079 13.5367Z"/>
    </symbol>

    <symbol viewBox="0 0 18 18" id="i-profile">
        <path fill-rule="evenodd" clip-rule="evenodd" d="M10.621 5.31805C10.621 4.32172 9.72971 3.53878 8.69158 3.72584L8.68824 3.72644L8.68824 3.72643C8.38136 3.78047 8.05168 3.98757 7.78716 4.33061C7.52287 4.67335 7.37871 5.08268 7.37871 5.43843V6.18898C7.37871 6.54257 7.52312 6.94976 7.78873 7.29273C8.05433 7.63569 8.38584 7.84504 8.69302 7.90183C9.73054 8.0879 10.621 7.30523 10.621 6.30936V5.31805ZM8.38921 2.03843C10.4942 1.66013 12.3352 3.27019 12.3352 5.31805V6.30936C12.3352 8.35774 10.4933 9.9681 8.38759 9.58869L8.38485 9.58819C7.57363 9.4393 6.8967 8.94067 6.43336 8.34238C5.96965 7.74361 5.66443 6.9754 5.66443 6.18898V5.43843C5.66443 4.65417 5.96636 3.88456 6.42961 3.28379C6.89232 2.68374 7.57102 2.18304 8.38921 2.03843Z"/>
        <path fill-rule="evenodd" clip-rule="evenodd" d="M9 1.71429C4.97621 1.71429 1.71429 4.97621 1.71429 9C1.71429 13.0238 4.97621 16.2857 9 16.2857C13.0238 16.2857 16.2857 13.0238 16.2857 9C16.2857 4.97621 13.0238 1.71429 9 1.71429ZM0 9C0 4.02944 4.02944 0 9 0C13.9706 0 18 4.02944 18 9C18 13.9706 13.9706 18 9 18C4.02944 18 0 13.9706 0 9Z"/>
        <path fill-rule="evenodd" clip-rule="evenodd" d="M8.99985 12.3353C6.82801 12.3353 4.99613 13.5832 4.23181 15.3029C4.03955 15.7355 3.53301 15.9303 3.10042 15.738C2.66784 15.5458 2.47302 15.0392 2.66528 14.6066C3.71362 12.2479 6.17268 10.621 8.99985 10.621C11.827 10.621 14.2861 12.2479 15.3344 14.6066C15.5267 15.0392 15.3319 15.5458 14.8993 15.738C14.4667 15.9303 13.9601 15.7355 13.7679 15.3029C13.0036 13.5832 11.1717 12.3353 8.99985 12.3353Z"/>
    </symbol>

    <symbol viewBox="0 0 18 18" id="i-purchases">
        <path d="M4 4.49996V2.69995C4.00001 2.17874 4.16765 1.66867 4.48266 1.23132C4.79768 0.793962 5.24662 0.448017 5.77529 0.235238C6.30395 0.0224602 6.88975 -0.0480548 7.46196 0.032205C8.03418 0.112465 8.56835 0.340069 9 0.687543C9.43165 0.340069 9.96582 0.112465 10.538 0.032205C11.1103 -0.0480548 11.696 0.0224602 12.2247 0.235238C12.7534 0.448017 13.2023 0.793962 13.5173 1.23132C13.8324 1.66867 14 2.17874 14 2.69995V4.49996H15.5C15.8978 4.49996 16.2794 4.64219 16.5607 4.89536C16.842 5.14854 17 5.49192 17 5.84996V14.8545C17 15.6887 16.6318 16.4888 15.9763 17.0787C15.3209 17.6686 14.4319 18 13.505 18H5C3.93913 18 2.92172 17.6207 2.17157 16.9456C1.42143 16.2704 1 15.3548 1 14.4V5.84996C1 5.49192 1.15804 5.14854 1.43934 4.89536C1.72064 4.64219 2.10218 4.49996 2.5 4.49996H4ZM10.635 16.65C10.2271 16.1233 10.0089 15.4965 10.01 14.8545V5.84996H2.5V14.4C2.5 14.6955 2.56466 14.988 2.6903 15.261C2.81594 15.534 3.00009 15.7821 3.23223 15.991C3.46438 16.1999 3.73998 16.3657 4.04329 16.4787C4.34661 16.5918 4.6717 16.65 5 16.65H10.635ZM8.5 4.49996V2.69995C8.5 2.34191 8.34196 1.99853 8.06066 1.74535C7.77936 1.49218 7.39782 1.34994 7 1.34994C6.60218 1.34994 6.22064 1.49218 5.93934 1.74535C5.65804 1.99853 5.5 2.34191 5.5 2.69995V4.49996H8.5ZM10 4.49996H12.5V2.69995C12.5 2.42206 12.4048 2.15093 12.2272 1.92357C12.0497 1.69622 11.7985 1.52371 11.508 1.42959C11.2175 1.33548 10.9018 1.32435 10.604 1.39772C10.3062 1.47109 10.0408 1.62539 9.844 1.83955C9.945 2.10955 10 2.39935 10 2.69995V4.49996ZM11.51 14.8545C11.51 15.3307 11.7202 15.7874 12.0943 16.1241C12.4685 16.4608 12.9759 16.65 13.505 16.65C14.0341 16.65 14.5415 16.4608 14.9157 16.1241C15.2898 15.7874 15.5 15.3307 15.5 14.8545V5.84996H11.51V14.8545Z"/>
    </symbol>

    <symbol viewBox="0 0 26 26" id="i-search">
        <path d="M11.1188 22.2365C13.5858 22.236 15.9817 21.4102 17.9249 19.8905L24.0347 26L26 24.0349L19.8902 17.9254C21.4107 15.982 22.2371 13.5857 22.2377 11.1182C22.2377 4.98792 17.2495 0 11.1188 0C4.98819 0 0 4.98792 0 11.1182C0 17.2486 4.98819 22.2365 11.1188 22.2365ZM11.1188 2.77956C15.7179 2.77956 19.458 6.51946 19.458 11.1182C19.458 15.717 15.7179 19.4569 11.1188 19.4569C6.51981 19.4569 2.77971 15.717 2.77971 11.1182C2.77971 6.51946 6.51981 2.77956 11.1188 2.77956Z"/>
    </symbol>

    <symbol viewBox="0 0 18 19" id="i-shop">
        <path d="M17.325 4.10225V1.22C17.325 0.82175 17.0033 0.5 16.605 0.5H1.39501C0.996763 0.5 0.675013 0.82175 0.675013 1.22V4.10225C0.299264 4.12475 1.39408e-05 4.4375 1.39408e-05 4.82V7.78325C-0.00142697 8.32785 0.108845 8.86696 0.324014 9.36725C0.420764 9.59675 0.540013 9.81275 0.675013 10.0175V17.78C0.675013 18.176 0.996763 18.5 1.39501 18.5H16.605C17.0033 18.5 17.325 18.1783 17.325 17.78V10.0175C17.4621 9.81223 17.5796 9.59452 17.676 9.36725C17.8897 8.8655 18 8.33225 18 7.78325V4.82C18 4.4375 17.7008 4.12475 17.325 4.10225ZM2.29501 2.12H15.705V4.1H2.29501V2.12ZM10.44 16.8822H7.56001V14.54H10.44V16.8822ZM15.705 16.8822H11.88V13.82C11.88 13.4218 11.5583 13.1 11.16 13.1H6.84001C6.44176 13.1 6.12001 13.4218 6.12001 13.82V16.8822H2.29501V11.4328C2.36026 11.4643 2.42776 11.4958 2.49751 11.5228C2.99926 11.7343 3.53251 11.84 4.08151 11.84C4.63051 11.84 5.16151 11.7343 5.66551 11.5228C5.97601 11.3923 6.26851 11.2257 6.53626 11.0255C6.54076 11.0233 6.54526 11.0233 6.54976 11.0255C6.81834 11.2266 7.11082 11.3936 7.42051 11.5228C7.92226 11.7343 8.45551 11.84 9.00451 11.84C9.55351 11.84 10.0845 11.7343 10.5885 11.5228C10.899 11.3923 11.1915 11.2257 11.4593 11.0255C11.4638 11.0233 11.4683 11.0233 11.4728 11.0255C11.7413 11.2266 12.0338 11.3936 12.3435 11.5228C12.8453 11.7343 13.3785 11.84 13.9275 11.84C14.4765 11.84 15.0075 11.7343 15.5115 11.5228C15.579 11.4935 15.6465 11.4643 15.714 11.4328V16.8822H15.705ZM16.38 7.78325C16.38 9.12875 15.2775 10.22 13.9208 10.22C13.0028 10.22 12.2018 9.72275 11.7788 8.98475C11.7135 8.87225 11.5965 8.8025 11.466 8.8025H11.4525C11.3243 8.8025 11.205 8.87225 11.1398 8.98475C10.9239 9.36121 10.6122 9.67381 10.2364 9.89077C9.86054 10.1077 9.43396 10.2213 9.00001 10.22C8.08426 10.22 7.28551 9.725 6.86251 8.98925C6.79501 8.8745 6.67351 8.8025 6.54076 8.8025C6.40801 8.8025 6.28426 8.8745 6.21901 8.98925C6.00188 9.36427 5.6898 9.67548 5.31416 9.89154C4.93853 10.1076 4.5126 10.2209 4.07926 10.22C2.72251 10.22 1.62001 9.12875 1.62001 7.78325V5.73125C1.62001 5.7245 1.62451 5.72 1.63126 5.72H16.3688C16.3755 5.72 16.38 5.7245 16.38 5.73125V7.78325Z"/>
    </symbol>

    <symbol viewBox="0 0 40 41" id="i-tg">
        <circle cx="20" cy="20.041" r="19.5" fill="white" stroke="#8D8D8D"/>
        <path d="M28.665 11.758L10.935 18.595C9.725 19.081 9.732 19.756 10.713 20.057L15.265 21.477L25.797 14.832C26.295 14.529 26.75 14.692 26.376 15.024L17.843 22.725H17.841L17.843 22.726L17.529 27.418C17.989 27.418 18.192 27.207 18.45 26.958L20.661 24.808L25.26 28.205C26.108 28.672 26.717 28.432 26.928 27.42L29.947 13.192C30.256 11.953 29.474 11.392 28.665 11.758Z" fill="#8D8D8D"/>
    </symbol>

    <symbol viewBox="0 0 40 41" id="i-vk">
        <circle cx="20" cy="20.041" r="19.5" fill="white" stroke="#8D8D8D"/>
        <path d="M29.579 14.896C29.719 14.431 29.579 14.09 28.917 14.09H26.724C26.166 14.09 25.911 14.385 25.771 14.709C25.771 14.709 24.656 17.428 23.076 19.191C22.566 19.704 22.333 19.866 22.055 19.866C21.916 19.866 21.714 19.704 21.714 19.239V14.896C21.714 14.338 21.553 14.09 21.088 14.09H17.642C17.294 14.09 17.084 14.348 17.084 14.594C17.084 15.122 17.874 15.244 17.955 16.732V19.96C17.955 20.667 17.828 20.796 17.548 20.796C16.805 20.796 14.997 18.067 13.924 14.943C13.715 14.336 13.504 14.091 12.944 14.091H10.752C10.125 14.091 10 14.386 10 14.71C10 15.292 10.743 18.172 13.461 21.981C15.273 24.582 17.824 25.992 20.148 25.992C21.541 25.992 21.713 25.679 21.713 25.139V23.173C21.713 22.547 21.846 22.421 22.287 22.421C22.611 22.421 23.169 22.585 24.47 23.838C25.956 25.324 26.202 25.991 27.037 25.991H29.229C29.855 25.991 30.168 25.678 29.988 25.06C29.791 24.445 29.081 23.55 28.139 22.491C27.627 21.887 26.862 21.237 26.629 20.912C26.304 20.493 26.398 20.308 26.629 19.936C26.63 19.937 29.301 16.175 29.579 14.896Z" fill="#8D8D8D"/>
    </symbol>

    <symbol viewBox="0 0 40 41" id="i-youtube">
        <circle cx="20" cy="20.041" r="19.5" fill="white" stroke="#8D8D8D"/>
        <path d="M30.0617 14.9809C29.9422 14.5356 29.7078 14.1296 29.382 13.8034C29.0563 13.4773 28.6505 13.2424 28.2055 13.1223C26.5672 12.6816 20 12.6816 20 12.6816C20 12.6816 13.4328 12.6816 11.7945 13.1199C11.3493 13.2396 10.9433 13.4744 10.6175 13.8006C10.2917 14.1269 10.0574 14.5331 9.93828 14.9785C9.5 16.6191 9.5 20.041 9.5 20.041C9.5 20.041 9.5 23.4629 9.93828 25.1012C10.1797 26.0059 10.8922 26.7184 11.7945 26.9598C13.4328 27.4004 20 27.4004 20 27.4004C20 27.4004 26.5672 27.4004 28.2055 26.9598C29.1102 26.7184 29.8203 26.0059 30.0617 25.1012C30.5 23.4629 30.5 20.041 30.5 20.041C30.5 20.041 30.5 16.6191 30.0617 14.9809ZM17.9141 23.1816V16.9004L23.3516 20.0176L17.9141 23.1816Z" fill="#8D8D8D"/>
    </symbol>

    <symbol viewBox="0 0 227 70" id="i-logo">
        <path d="M6.05113 29.844C5.34713 29.844 4.65046 29.9467 3.96113 30.152C3.2718 30.3427 2.59713 30.5773 1.93713 30.856L0.88113 28.172C1.65846 27.8347 2.4798 27.5707 3.34513 27.38C4.21046 27.1747 5.13446 27.072 6.11713 27.072C7.2758 27.072 8.30246 27.2553 9.19713 27.622C10.1065 27.974 10.8691 28.502 11.4851 29.206C12.1158 29.8953 12.5925 30.746 12.9151 31.758C13.2525 32.7553 13.4211 33.892 13.4211 35.168C13.4211 36.7813 13.1498 38.1967 12.6071 39.414C12.0645 40.6167 11.2285 41.5553 10.0991 42.23C8.98446 42.89 7.55446 43.22 5.80913 43.22C4.91446 43.22 4.10046 43.154 3.36713 43.022C2.64846 42.89 1.91513 42.6847 1.16713 42.406V39.612C2.00313 39.876 2.77313 40.0813 3.47713 40.228C4.1958 40.3747 4.90713 40.448 5.61113 40.448C6.2858 40.448 6.8798 40.3673 7.39313 40.206C7.92113 40.03 8.36113 39.7807 8.71313 39.458C9.0798 39.1207 9.3658 38.7027 9.57113 38.204C9.77646 37.6907 9.8938 37.104 9.92313 36.444H3.10313V33.716H9.90113C9.88646 33.1 9.7838 32.5573 9.59313 32.088C9.40246 31.604 9.13846 31.2007 8.80113 30.878C8.4638 30.5407 8.06046 30.284 7.59113 30.108C7.13646 29.932 6.62313 29.844 6.05113 29.844ZM30.9893 43H27.6673V30.064H23.8173C23.7293 30.7387 23.634 31.472 23.5313 32.264C23.4433 33.056 23.3407 33.8627 23.2233 34.684C23.1207 35.4907 23.0107 36.2607 22.8933 36.994C22.776 37.7127 22.6587 38.3507 22.5413 38.908C22.3507 39.8173 22.094 40.5947 21.7713 41.24C21.4633 41.8853 21.0307 42.3767 20.4733 42.714C19.9307 43.0513 19.2193 43.22 18.3393 43.22C18.046 43.22 17.7673 43.198 17.5033 43.154C17.2393 43.11 16.99 43.0513 16.7553 42.978V40.25C16.946 40.3087 17.1293 40.36 17.3053 40.404C17.496 40.448 17.7013 40.47 17.9213 40.47C18.2147 40.47 18.4567 40.3747 18.6473 40.184C18.838 39.9933 19.0067 39.6707 19.1533 39.216C19.3 38.7467 19.4467 38.1013 19.5933 37.28C19.6667 36.928 19.7547 36.4293 19.8573 35.784C19.96 35.124 20.0773 34.354 20.2093 33.474C20.356 32.5793 20.5027 31.6113 20.6493 30.57C20.796 29.514 20.9353 28.4213 21.0673 27.292H30.9893V43ZM46.3039 43H37.2619V27.292H46.3039V30.02H40.5839V33.474H45.9079V36.202H40.5839V40.25H46.3039V43ZM64.6865 43H60.9025L55.2045 35.036V43H51.8825V27.292H55.2045V34.904L60.8365 27.292H64.3785L58.6585 34.838L64.6865 43ZM75.0237 43H71.7017V30.064H67.4337V27.292H79.2917V30.064H75.0237V43ZM89.0399 27.292C91.0639 27.292 92.5379 27.732 93.4619 28.612C94.4006 29.4773 94.8699 30.6727 94.8699 32.198C94.8699 32.8873 94.7673 33.5473 94.5619 34.178C94.3566 34.794 94.0119 35.3513 93.5279 35.85C93.0586 36.334 92.4353 36.7153 91.6579 36.994C90.8806 37.2727 89.9199 37.412 88.7759 37.412H87.3459V43H84.0239V27.292H89.0399ZM88.8639 30.02H87.3459V34.684H88.4459C89.0766 34.684 89.6193 34.6033 90.0739 34.442C90.5286 34.2807 90.8806 34.024 91.1299 33.672C91.3793 33.32 91.5039 32.8653 91.5039 32.308C91.5039 31.5307 91.2913 30.9587 90.8659 30.592C90.4406 30.2107 89.7733 30.02 88.8639 30.02ZM114.404 35.124C114.404 36.3413 114.25 37.4487 113.942 38.446C113.649 39.4287 113.194 40.2793 112.578 40.998C111.977 41.7167 111.2 42.2667 110.246 42.648C109.308 43.0293 108.2 43.22 106.924 43.22C105.648 43.22 104.534 43.0293 103.58 42.648C102.642 42.252 101.864 41.702 101.248 40.998C100.647 40.2793 100.192 39.4213 99.8844 38.424C99.5911 37.4267 99.4444 36.3193 99.4444 35.102C99.4444 33.474 99.7084 32.0587 100.236 30.856C100.779 29.6533 101.6 28.722 102.7 28.062C103.815 27.3873 105.23 27.05 106.946 27.05C108.648 27.05 110.048 27.3873 111.148 28.062C112.248 28.722 113.062 29.6607 113.59 30.878C114.133 32.0807 114.404 33.496 114.404 35.124ZM102.942 35.124C102.942 36.224 103.082 37.17 103.36 37.962C103.639 38.754 104.072 39.3627 104.658 39.788C105.245 40.2133 106 40.426 106.924 40.426C107.878 40.426 108.64 40.2133 109.212 39.788C109.799 39.3627 110.224 38.754 110.488 37.962C110.767 37.17 110.906 36.224 110.906 35.124C110.906 33.4667 110.598 32.1687 109.982 31.23C109.366 30.2913 108.354 29.822 106.946 29.822C106.008 29.822 105.245 30.0347 104.658 30.46C104.072 30.8853 103.639 31.494 103.36 32.286C103.082 33.078 102.942 34.024 102.942 35.124ZM126.634 29.844C126.003 29.844 125.439 29.9687 124.94 30.218C124.456 30.4673 124.045 30.8267 123.708 31.296C123.371 31.7507 123.114 32.308 122.938 32.968C122.777 33.628 122.696 34.3687 122.696 35.19C122.696 36.3047 122.828 37.258 123.092 38.05C123.371 38.8273 123.803 39.4213 124.39 39.832C124.977 40.2427 125.725 40.448 126.634 40.448C127.279 40.448 127.917 40.3747 128.548 40.228C129.193 40.0813 129.89 39.876 130.638 39.612V42.406C129.949 42.6847 129.267 42.89 128.592 43.022C127.917 43.154 127.162 43.22 126.326 43.22C124.713 43.22 123.378 42.89 122.322 42.23C121.281 41.5553 120.511 40.6167 120.012 39.414C119.513 38.1967 119.264 36.7813 119.264 35.168C119.264 33.98 119.425 32.8947 119.748 31.912C120.071 30.9147 120.54 30.0567 121.156 29.338C121.787 28.6193 122.557 28.062 123.466 27.666C124.39 27.27 125.446 27.072 126.634 27.072C127.411 27.072 128.189 27.1747 128.966 27.38C129.758 27.5707 130.513 27.8347 131.232 28.172L130.154 30.878C129.567 30.5993 128.973 30.3573 128.372 30.152C127.785 29.9467 127.206 29.844 126.634 29.844ZM136.286 27.292H139.278V34.882C139.278 35.2487 139.271 35.6593 139.256 36.114C139.241 36.5687 139.227 37.016 139.212 37.456C139.197 37.8813 139.183 38.2553 139.168 38.578C139.153 38.886 139.139 39.0987 139.124 39.216H139.19L146.45 27.292H150.432V43H147.462V35.454C147.462 35.058 147.469 34.6253 147.484 34.156C147.499 33.672 147.513 33.21 147.528 32.77C147.557 32.33 147.579 31.9487 147.594 31.626C147.623 31.2887 147.645 31.0687 147.66 30.966H147.572L140.29 43H136.286V27.292ZM162.757 43H159.435V30.064H155.167V27.292H167.025V30.064H162.757V43ZM171.758 27.292H174.75V34.882C174.75 35.2487 174.742 35.6593 174.728 36.114C174.713 36.5687 174.698 37.016 174.684 37.456C174.669 37.8813 174.654 38.2553 174.64 38.578C174.625 38.886 174.61 39.0987 174.596 39.216H174.662L181.922 27.292H185.904V43H182.934V35.454C182.934 35.058 182.941 34.6253 182.956 34.156C182.97 33.672 182.985 33.21 183 32.77C183.029 32.33 183.051 31.9487 183.066 31.626C183.095 31.2887 183.117 31.0687 183.132 30.966H183.044L175.762 43H171.758V27.292Z"/>
    </symbol>

    <symbol viewBox="0 0 24 20" id="i-burger">
        <path d="M0 2H24"/>
        <path d="M0 10H24"/>
        <path d="M0 18H24"/>
    </symbol>

    <symbol viewBox="0 0 18 19" id="i-percent">
        <path d="M0 4.11924C0 3.04509 0.392777 2.17535 1.17833 1.51002C1.96388 0.836673 2.99323 0.5 4.26637 0.5C5.55756 0.5 6.59594 0.832665 7.38149 1.498C8.16704 2.15531 8.55982 3.0491 8.55982 4.17936V5.04509C8.55982 6.12725 8.16704 6.99699 7.38149 7.65431C6.59594 8.31162 5.56659 8.64028 4.29345 8.64028C3.01129 8.64028 1.97291 8.31162 1.17833 7.65431C0.392777 6.98898 0 6.09519 0 4.97295V4.11924ZM2.60045 5.04509C2.60045 5.52605 2.75395 5.91483 3.06095 6.21142C3.37698 6.5 3.78781 6.64429 4.29345 6.64429C4.7991 6.64429 5.2009 6.49599 5.49887 6.1994C5.79684 5.90281 5.94582 5.50601 5.94582 5.00902V4.11924C5.94582 3.63828 5.79684 3.2495 5.49887 2.95291C5.2009 2.65631 4.79007 2.50802 4.26637 2.50802C3.76975 2.50802 3.36795 2.65631 3.06095 2.95291C2.75395 3.24148 2.60045 3.64629 2.60045 4.16733V5.04509ZM9.42664 13.9669C9.42664 12.8848 9.82393 12.015 10.6185 11.3577C11.4131 10.6924 12.4424 10.3597 13.7065 10.3597C14.9887 10.3597 16.0226 10.6884 16.8081 11.3457C17.6027 11.995 18 12.8928 18 14.0391V14.9048C18 15.979 17.6117 16.8487 16.8352 17.514C16.0587 18.1713 15.0248 18.5 13.7336 18.5C12.4334 18.5 11.3905 18.1673 10.605 17.502C9.81941 16.8367 9.42664 15.9549 9.42664 14.8567V13.9669ZM12.0271 14.9048C12.0271 15.3457 12.1896 15.7224 12.5147 16.0351C12.8397 16.3477 13.246 16.504 13.7336 16.504C14.8352 16.504 15.386 15.9629 15.386 14.8808V13.9669C15.386 13.486 15.2325 13.1012 14.9255 12.8126C14.6185 12.516 14.2122 12.3677 13.7065 12.3677C13.2009 12.3677 12.7946 12.516 12.4876 12.8126C12.1806 13.1012 12.0271 13.498 12.0271 14.003V14.9048ZM5.06546 16.9489L3.15576 16.0351L12.7856 2.3517L14.6953 3.26553L5.06546 16.9489Z"/>
    </symbol>

    <symbol viewBox="0 0 20 20" id="i-close">
        <path d="M19 1L1 19"/>
        <path d="M1 1L19 19"/>
    </symbol>

    <symbol viewBox="0 0 8 16" id="i-arrow-right">
        <path d="M1.13526 15.4981C0.87047 15.4986 0.613858 15.4116 0.40997 15.2522C0.295217 15.1624 0.200361 15.0522 0.130833 14.9278C0.0613047 14.8035 0.0184714 14.6674 0.00478626 14.5273C-0.0088989 14.3873 0.00683311 14.2461 0.0510809 14.1118C0.0953286 13.9776 0.167222 13.8528 0.262645 13.7448L5.33967 8.01466L0.443968 2.27382C0.349833 2.16447 0.279534 2.03865 0.237114 1.90358C0.194694 1.76852 0.180989 1.62688 0.196785 1.4868C0.212582 1.34672 0.257569 1.21097 0.329162 1.08735C0.400755 0.963727 0.497541 0.854671 0.613958 0.766449C0.731212 0.669126 0.868525 0.595716 1.01728 0.550828C1.16604 0.505939 1.32302 0.490541 1.47838 0.505598C1.63375 0.520656 1.78413 0.565844 1.9201 0.638329C2.05608 0.710813 2.1747 0.809027 2.26853 0.926808L7.7422 7.34116C7.90888 7.53244 8 7.77239 8 8.02001C8 8.26763 7.90888 8.50757 7.7422 8.69886L2.07587 15.1132C1.96218 15.2426 1.81777 15.3448 1.65434 15.4117C1.49091 15.4786 1.31308 15.5082 1.13526 15.4981Z"/>
    </symbol>

    <symbol viewBox="0 0 20 24" id="i-home">
        <path d="M2.22222 24H17.7778C18.3671 24 18.9324 23.7472 19.3491 23.2971C19.7659 22.847 20 22.2366 20 21.6001V10.8005C20.0008 10.6426 19.9728 10.4861 19.9175 10.3399C19.8622 10.1937 19.7807 10.0607 19.6778 9.94856L10.7889 0.348937C10.5807 0.125445 10.2991 0 10.0055 0C9.71201 0 9.43039 0.125445 9.22221 0.348937L0.333333 9.94856C0.228346 10.0597 0.144824 10.1922 0.0876058 10.3385C0.0303874 10.4847 0.000610277 10.6418 0 10.8005V21.6001C0 22.2366 0.234126 22.847 0.650873 23.2971C1.06762 23.7472 1.63285 24 2.22222 24ZM7.77777 21.6001V15.6003H12.2222V21.6001H7.77777ZM2.22222 11.2925L9.99999 2.89284L17.7778 11.2925V21.6001H14.4444V15.6003C14.4444 14.9638 14.2103 14.3534 13.7936 13.9033C13.3768 13.4533 12.8116 13.2004 12.2222 13.2004H7.77777C7.1884 13.2004 6.62317 13.4533 6.20642 13.9033C5.78968 14.3534 5.55555 14.9638 5.55555 15.6003V21.6001H2.22222V11.2925Z"/>
    </symbol>
</svg>